<svg id="visual" viewBox="0 0 900 250" width="900" height="250" xmlns="http://www.w3.org/2000/svg" xmlns:xlink="http://www.w3.org/1999/xlink" version="1.1"><path d="M0 59L13.7 54.8C27.3 50.7 54.7 42.3 82 45.2C109.3 48 136.7 62 163.8 67.3C191 72.7 218 69.3 245.2 73.2C272.3 77 299.7 88 327 91C354.3 94 381.7 89 409 81.8C436.3 74.7 463.7 65.3 491 56.5C518.3 47.7 545.7 39.3 573 48.2C600.3 57 627.7 83 654.8 89.7C682 96.3 709 83.7 736.2 71.2C763.3 58.7 790.7 46.3 818 45.2C845.3 44 872.7 54 886.3 59L900 64L900 0L886.3 0C872.7 0 845.3 0 818 0C790.7 0 763.3 0 736.2 0C709 0 682 0 654.8 0C627.7 0 600.3 0 573 0C545.7 0 518.3 0 491 0C463.7 0 436.3 0 409 0C381.7 0 354.3 0 327 0C299.7 0 272.3 0 245.2 0C218 0 191 0 163.8 0C136.7 0 109.3 0 82 0C54.7 0 27.3 0 13.7 0L0 0Z" fill="#5c302b"></path><path d="M0 94L13.7 89.3C27.3 84.7 54.7 75.3 82 79.5C109.3 83.7 136.7 101.3 163.8 109.7C191 118 218 117 245.2 117.8C272.3 118.7 299.7 121.3 327 121C354.3 120.7 381.7 117.3 409 114C436.3 110.7 463.7 107.3 491 101C518.3 94.7 545.7 85.3 573 92.3C600.3 99.3 627.7 122.7 654.8 127.3C682 132 709 118 736.2 105.5C763.3 93 790.7 82 818 80.7C845.3 79.3 872.7 87.7 886.3 91.8L900 96L900 62L886.3 57C872.7 52 845.3 42 818 43.2C790.7 44.3 763.3 56.7 736.2 69.2C709 81.7 682 94.3 654.8 87.7C627.7 81 600.3 55 573 46.2C545.7 37.3 518.3 45.7 491 54.5C463.7 63.3 436.3 72.7 409 79.8C381.7 87 354.3 92 327 89C299.7 86 272.3 75 245.2 71.2C218 67.3 191 70.7 163.8 65.3C136.7 60 109.3 46 82 43.2C54.7 40.3 27.3 48.7 13.7 52.8L0 57Z" fill="#6c3932"></path><path d="M0 181L13.7 177.7C27.3 174.3 54.7 167.7 82 168.5C109.3 169.3 136.7 177.7 163.8 179C191 180.3 218 174.7 245.2 171.3C272.3 168 299.7 167 327 169.5C354.3 172 381.7 178 409 183.8C436.3 189.7 463.7 195.3 491 190.7C518.3 186 545.7 171 573 170.2C600.3 169.3 627.7 182.7 654.8 183.2C682 183.7 709 171.3 736.2 168C763.3 164.7 790.7 170.3 818 175.7C845.3 181 872.7 186 886.3 188.5L900 191L900 94L886.3 89.8C872.7 85.7 845.3 77.3 818 78.7C790.7 80 763.3 91 736.2 103.5C709 116 682 130 654.8 125.3C627.7 120.7 600.3 97.3 573 90.3C545.7 83.3 518.3 92.7 491 99C463.7 105.3 436.3 108.7 409 112C381.7 115.3 354.3 118.7 327 119C299.7 119.3 272.3 116.7 245.2 115.8C218 115 191 116 163.8 107.7C136.7 99.3 109.3 81.7 82 77.5C54.7 73.3 27.3 82.7 13.7 87.3L0 92Z" fill="#7d4238"></path><path d="M0 219L13.7 214C27.3 209 54.7 199 82 196.5C109.3 194 136.7 199 163.8 200.7C191 202.3 218 200.7 245.2 199.8C272.3 199 299.7 199 327 201C354.3 203 381.7 207 409 212.3C436.3 217.7 463.7 224.3 491 221C518.3 217.7 545.7 204.3 573 201.5C600.3 198.7 627.7 206.3 654.8 205.2C682 204 709 194 736.2 194.3C763.3 194.7 790.7 205.3 818 212C845.3 218.7 872.7 221.3 886.3 222.7L900 224L900 189L886.3 186.5C872.7 184 845.3 179 818 173.7C790.7 168.3 763.3 162.7 736.2 166C709 169.3 682 181.7 654.8 181.2C627.7 180.7 600.3 167.3 573 168.2C545.7 169 518.3 184 491 188.7C463.7 193.3 436.3 187.7 409 181.8C381.7 176 354.3 170 327 167.5C299.7 165 272.3 166 245.2 169.3C218 172.7 191 178.3 163.8 177C136.7 175.7 109.3 167.3 82 166.5C54.7 165.7 27.3 172.3 13.7 175.7L0 179Z" fill="#8e564c"></path><path d="M0 251L13.7 251C27.3 251 54.7 251 82 251C109.3 251 136.7 251 163.8 251C191 251 218 251 245.2 251C272.3 251 299.7 251 327 251C354.3 251 381.7 251 409 251C436.3 251 463.7 251 491 251C518.3 251 545.7 251 573 251C600.3 251 627.7 251 654.8 251C682 251 709 251 736.2 251C763.3 251 790.7 251 818 251C845.3 251 872.7 251 886.3 251L900 251L900 222L886.3 220.7C872.7 219.3 845.3 216.7 818 210C790.7 203.3 763.3 192.7 736.2 192.3C709 192 682 202 654.8 203.2C627.7 204.3 600.3 196.7 573 199.5C545.7 202.3 518.3 215.7 491 219C463.7 222.3 436.3 215.7 409 210.3C381.7 205 354.3 201 327 199C299.7 197 272.3 197 245.2 197.8C218 198.7 191 200.3 163.8 198.7C136.7 197 109.3 192 82 194.5C54.7 197 27.3 207 13.7 212L0 217Z" fill="#9f6a61"></path></svg>